<svg width="18" height="18" viewBox="0 0 18 18" fill="none" xmlns="http://www.w3.org/2000/svg">
<path d="M15.75 4.48499C13.2525 4.23749 10.74 4.10999 8.235 4.10999C6.75 4.10999 5.265 4.18498 3.78 4.33499L2.25 4.48499" stroke="#F31260" stroke-width="1.35" stroke-linecap="round" stroke-linejoin="round"/>
<path d="M6.375 3.72753L6.54001 2.74503C6.66 2.03252 6.75 1.50003 8.0175 1.50003H9.98246C11.25 1.50003 11.3475 2.06253 11.46 2.75252L11.625 3.72753" stroke="#F31260" stroke-width="1.35" stroke-linecap="round" stroke-linejoin="round"/>
<path d="M14.1383 6.85498L13.6508 14.4075C13.5683 15.5849 13.5008 16.5 11.4083 16.5H6.59328C4.50078 16.5 4.43328 15.5849 4.35078 14.4075L3.86328 6.85498" stroke="#F31260" stroke-width="1.35" stroke-linecap="round" stroke-linejoin="round"/>
<path d="M7.74609 12.375H10.2436" stroke="#F31260" stroke-width="1.35" stroke-linecap="round" stroke-linejoin="round"/>
<path d="M7.125 9.37503H10.875" stroke="#F31260" stroke-width="1.35" stroke-linecap="round" stroke-linejoin="round"/>
</svg>
